<?xml version="1.0" encoding="UTF-8" standalone="no"?><!DOCTYPE svg PUBLIC "-//W3C//DTD SVG 1.1//EN" "http://www.w3.org/Graphics/SVG/1.1/DTD/svg11.dtd"><svg width="100%" height="100%" viewBox="0 0 31 31" version="1.1" xmlns="http://www.w3.org/2000/svg" xmlns:xlink="http://www.w3.org/1999/xlink" xml:space="preserve" xmlns:serif="http://www.serif.com/" style="fill-rule:evenodd;clip-rule:evenodd;stroke-linejoin:round;stroke-miterlimit:2;"><path d="M30.54,15.87c0,-3.978 -1.58,-7.793 -4.392,-10.605c-2.813,-2.813 -6.628,-4.393 -10.606,-4.393l-0.004,-0c-3.977,-0 -7.792,1.58 -10.605,4.393c-2.812,2.812 -4.393,6.627 -4.393,10.605l0,0.004c0,3.977 1.581,7.792 4.393,10.605c2.813,2.813 6.628,4.393 10.605,4.393l0.004,-0c3.978,-0 7.793,-1.58 10.606,-4.393c2.812,-2.813 4.392,-6.628 4.392,-10.605l0,-0.004Z" style="fill:#dca561;"/><path d="M30.54,15.87c0,-3.978 -1.58,-7.793 -4.392,-10.605c-2.813,-2.813 -6.628,-4.393 -10.606,-4.393l-0.004,-0c-3.977,-0 -7.792,1.58 -10.605,4.393c-2.812,2.812 -4.393,6.627 -4.393,10.605l0,0.004c0,3.977 1.581,7.792 4.393,10.605c2.813,2.813 6.628,4.393 10.605,4.393l0.004,-0c3.978,-0 7.793,-1.58 10.606,-4.393c2.812,-2.813 4.392,-6.628 4.392,-10.605l0,-0.004Zm-2,-0l0,0.004c0,3.447 -1.369,6.753 -3.807,9.191c-2.437,2.437 -5.743,3.807 -9.191,3.807l-0.004,-0c-3.447,-0 -6.753,-1.37 -9.191,-3.807c-2.437,-2.438 -3.807,-5.744 -3.807,-9.191l0,-0.004c0,-3.448 1.37,-6.754 3.807,-9.191c2.438,-2.438 5.744,-3.807 9.191,-3.807l0.004,-0c3.448,-0 6.754,1.369 9.191,3.807c2.438,2.437 3.807,5.743 3.807,9.191Z"/></svg>