<?xml version="1.0" encoding="UTF-8" standalone="no"?><!DOCTYPE svg PUBLIC "-//W3C//DTD SVG 1.1//EN" "http://www.w3.org/Graphics/SVG/1.1/DTD/svg11.dtd"><svg width="100%" height="100%" viewBox="0 0 31 31" version="1.1" xmlns="http://www.w3.org/2000/svg" xmlns:xlink="http://www.w3.org/1999/xlink" xml:space="preserve" xmlns:serif="http://www.serif.com/" style="fill-rule:evenodd;clip-rule:evenodd;stroke-linejoin:round;stroke-miterlimit:2;"><path d="M30.532,15.862c-0,-3.976 -1.58,-7.789 -4.391,-10.6c-2.811,-2.811 -6.624,-4.39 -10.599,-4.39l-0.003,-0c-3.975,-0 -7.788,1.579 -10.599,4.39c-2.811,2.811 -4.391,6.624 -4.391,10.6l0,0.02c0,3.975 1.58,7.788 4.391,10.599c2.811,2.811 6.624,4.391 10.599,4.391l0.003,-0c3.975,-0 7.788,-1.58 10.599,-4.391c2.811,-2.811 4.391,-6.624 4.391,-10.599l-0,-0.02Z" style="fill:#6a9589;"/><path d="M30.532,15.862c-0,-3.976 -1.58,-7.789 -4.391,-10.6c-2.811,-2.811 -6.624,-4.39 -10.599,-4.39l-0.003,-0c-3.975,-0 -7.788,1.579 -10.599,4.39c-2.811,2.811 -4.391,6.624 -4.391,10.6l0,0.02c0,3.975 1.58,7.788 4.391,10.599c2.811,2.811 6.624,4.391 10.599,4.391l0.003,-0c3.975,-0 7.788,-1.58 10.599,-4.391c2.811,-2.811 4.391,-6.624 4.391,-10.599l-0,-0.02Zm-2,-0l-0,0.02c-0,3.445 -1.369,6.749 -3.805,9.185c-2.436,2.436 -5.74,3.805 -9.185,3.805l-0.003,-0c-3.445,-0 -6.749,-1.369 -9.185,-3.805c-2.436,-2.436 -3.805,-5.74 -3.805,-9.185l0,-0.02c0,-3.445 1.369,-6.75 3.805,-9.186c2.436,-2.436 5.74,-3.804 9.185,-3.804l0.003,-0c3.445,-0 6.749,1.368 9.185,3.804c2.436,2.436 3.805,5.741 3.805,9.186Z"/></svg>